<svg version="1.1" id="Layer_1" xmlns="http://www.w3.org/2000/svg" xmlns:xlink="http://www.w3.org/1999/xlink" x="0px" y="0px"
	 width="100%" viewBox="0 0 500 500" enable-background="new 0 0 500 500" xml:space="preserve">
<path fill="#050A30" opacity="1.000000" stroke="none" 
	d="
M251.000000,501.000000 
	C167.333359,501.000000 84.166710,501.000000 1.000045,501.000000 
	C1.000030,334.333405 1.000030,167.666779 1.000015,1.000134 
	C167.666565,1.000089 334.333130,1.000089 500.999756,1.000045 
	C500.999847,167.666519 500.999847,334.333038 500.999939,500.999786 
	C417.833344,501.000000 334.666656,501.000000 251.000000,501.000000 
M344.499969,214.986481 
	C344.329926,215.018890 344.159882,215.051300 343.172058,214.907852 
	C336.103729,215.379852 342.262817,220.396240 340.030304,222.529617 
	C340.367767,222.850906 340.705231,223.172211 341.042694,223.493500 
	C342.042572,222.694748 343.042450,221.895996 344.500031,221.018341 
	C344.500031,221.018341 344.957733,221.097336 345.031433,221.808655 
	C345.780670,222.151093 346.529877,222.493530 347.279114,222.835968 
	C347.730865,220.658203 348.346619,218.489120 348.462952,216.293594 
	C348.481049,215.952240 346.218170,215.490021 344.499969,214.986481 
M342.890015,288.643066 
	C343.254395,288.705688 343.618744,288.768311 344.814636,288.987091 
	C345.435883,289.718781 346.533020,290.413635 346.593048,291.188782 
	C346.810822,294.001526 346.663269,296.841370 346.685455,299.670715 
	C346.752472,308.220428 350.169495,310.766785 358.813049,308.647278 
	C358.813049,306.936432 358.813049,305.210327 358.813049,303.332153 
	C354.234924,304.967987 352.621216,303.301422 352.865601,298.986359 
	C353.050201,295.726440 352.902130,292.447662 352.902130,289.139801 
	C355.264648,289.020294 357.035461,288.930725 359.134125,288.824585 
	C359.050232,286.969788 358.980713,285.433197 358.915405,283.989349 
	C356.615173,283.826508 354.849823,283.701508 352.649414,283.545685 
	C352.649414,280.121490 352.649414,277.079559 352.649414,273.962555 
	C347.236481,275.379944 346.203857,279.095490 346.706146,283.417572 
	C345.227325,283.783569 344.118164,284.058075 342.207733,284.384216 
	C339.253265,284.578979 336.297180,284.753021 333.345551,284.984131 
	C332.673859,285.036743 331.931976,285.566772 331.369843,285.394897 
	C329.447327,284.806976 327.590515,284.004395 325.368744,283.153503 
	C325.368744,292.455383 325.368744,300.652679 325.368744,309.068512 
	C327.436951,308.971832 329.178925,308.890411 331.112091,308.800049 
	C331.112091,305.427185 330.805756,302.414734 331.199127,299.496582 
	C331.584961,296.634583 331.846649,292.922394 333.681030,291.301971 
	C335.929077,289.316162 339.754547,289.116058 342.954651,288.094299 
	C342.954651,288.094299 342.889709,288.056152 342.890015,288.643066 
M252.817307,177.480148 
	C253.684143,174.263367 251.681442,173.588104 249.144089,173.029388 
	C239.233582,170.847198 229.355118,168.520126 219.457352,166.279510 
	C205.529709,163.126648 191.595520,160.002762 176.210159,156.539154 
	C198.371567,182.446182 219.607285,207.271057 241.048569,232.336243 
	C249.554703,223.793091 257.774384,215.979141 265.468933,207.678406 
	C272.386841,200.215500 279.489044,193.521454 290.421326,193.132797 
	C290.870209,193.116821 291.308319,192.799377 292.398590,192.363907 
	C285.973328,186.817764 283.738556,176.596817 272.539978,177.657288 
	C271.692139,177.737579 269.921387,175.457794 269.775757,174.142654 
	C269.384583,170.609024 269.642212,167.003571 269.642212,163.414551 
	C265.966522,163.414551 263.191742,163.414551 260.271057,163.414551 
	C260.271057,172.975021 260.271057,182.274597 260.271057,192.141281 
	C255.632538,188.205429 250.063507,185.512039 252.817307,177.480148 
M337.643158,199.153580 
	C340.541046,195.657028 343.438904,192.160477 347.046783,187.807266 
	C344.314941,188.042526 342.985107,188.042480 341.701233,188.285339 
	C328.633850,190.757141 315.666687,194.199677 302.486420,195.511932 
	C288.771332,196.877457 278.329102,202.402603 270.442780,213.470261 
	C268.622375,216.025024 266.192688,218.145309 264.045959,220.467911 
	C260.722076,224.064133 257.400421,227.662430 253.953079,231.394882 
	C254.832855,231.832352 255.102646,232.083633 255.372971,232.084198 
	C272.852539,232.121216 290.332642,232.198822 307.810822,232.048920 
	C309.323853,232.035934 311.229156,230.852219 312.265869,229.630096 
	C320.663269,219.730591 328.896545,209.691879 337.643158,199.153580 
M124.609344,232.083282 
	C130.790497,233.539413 134.303223,230.049911 137.695099,225.557205 
	C145.496933,215.223297 153.599304,205.116287 161.583237,194.919937 
	C167.800964,186.979187 174.023987,179.042587 180.519257,170.753723 
	C177.469925,168.158920 174.878769,165.953995 171.739487,163.282639 
	C153.560623,186.125122 135.764221,208.487015 117.227684,231.778931 
	C120.230591,231.920013 121.969704,232.001724 124.609344,232.083282 
M125.612030,309.013397 
	C127.942245,308.980682 130.282318,309.074219 132.600967,308.893250 
	C142.482819,308.121887 148.208252,301.931366 148.458466,291.860352 
	C148.715820,281.502014 143.675156,274.965881 133.875824,273.769623 
	C129.337067,273.215607 124.674576,273.675079 119.869316,273.675079 
	C119.869316,285.393311 119.869316,297.096802 119.869316,309.013397 
	C121.691956,309.013397 123.182930,309.013397 125.612030,309.013397 
M167.116745,309.251343 
	C176.267242,310.105896 181.929672,306.969604 185.035706,299.118622 
	C183.262283,298.376526 181.484573,297.632660 179.782837,296.920593 
	C175.577347,302.773010 171.500809,304.463684 166.078934,302.809723 
	C161.731216,301.483459 159.102219,297.225830 159.003143,291.350586 
	C158.899307,285.191345 161.391953,281.080414 166.169846,279.531006 
	C171.464142,277.814209 175.602539,279.492523 179.877502,285.276825 
	C181.580124,284.577728 183.349091,283.851410 185.138458,283.116699 
	C181.167618,274.728760 173.991089,271.262268 165.312042,273.201294 
	C157.483932,274.950226 152.549591,281.886719 152.544281,291.149750 
	C152.538712,300.861572 157.216324,306.979797 167.116745,309.251343 
M279.246948,283.674469 
	C275.859131,283.887451 272.471344,284.100433 268.986877,284.319489 
	C268.986877,296.108398 268.986877,307.953857 268.986877,319.877686 
	C271.046387,319.877686 272.815918,319.877686 275.045959,319.877686 
	C275.045959,315.690033 275.045959,311.658386 275.045959,307.235260 
	C280.301636,310.140106 284.994720,310.614410 289.213745,306.577606 
	C293.107758,302.851776 294.134247,295.328735 291.688293,289.804199 
	C289.588013,285.060303 286.083038,283.144196 279.246948,283.674469 
M201.272964,273.203705 
	C198.018173,273.203705 194.763397,273.203705 191.391937,273.203705 
	C191.391937,285.464752 191.391937,297.021698 191.391937,308.803650 
	C193.526794,308.803650 195.439819,308.803650 197.909897,308.803650 
	C197.909897,303.970856 197.909897,299.258850 197.909897,294.450531 
	C200.927826,294.276184 203.428238,294.320312 205.867432,293.955322 
	C213.067764,292.877930 216.979156,286.495270 214.395905,280.096466 
	C212.178192,274.603119 207.336517,273.586182 201.272964,273.203705 
M296.944275,290.788116 
	C294.669373,298.496490 296.554169,304.937988 301.963531,307.942383 
	C307.432404,310.979797 314.420868,309.650604 318.588806,304.626465 
	C317.365295,303.573730 316.138916,302.518555 314.992767,301.532379 
	C308.079285,305.304932 304.831970,304.561584 302.976471,298.350403 
	C308.690338,298.350403 314.216492,298.350403 319.677673,298.350403 
	C320.119507,290.373657 317.653931,285.756470 312.390381,283.952393 
	C306.311951,281.868988 301.143433,283.937317 296.944275,290.788116 
M354.543915,196.004868 
	C353.815277,194.925461 353.086639,193.846069 352.348267,192.752243 
	C346.399994,198.926926 346.373993,198.947250 350.724030,204.508606 
	C353.184082,207.653702 356.033813,210.531647 358.201477,213.859848 
	C362.514069,220.481339 370.580780,224.835556 370.368073,234.367355 
	C374.952545,234.101944 379.288605,233.850922 384.893433,233.526443 
	C374.388763,220.523376 364.698792,208.528748 354.543915,196.004868 
M383.193878,293.823578 
	C384.472046,290.651001 385.750214,287.478424 387.042633,284.270477 
	C382.292023,282.939545 379.514313,283.963318 378.362701,288.813690 
	C377.475220,292.551788 375.749237,296.090759 373.966736,300.869232 
	C371.543091,294.365265 369.601959,289.156128 367.723358,284.114746 
	C365.380157,284.114746 363.317322,284.114746 360.936401,284.114746 
	C362.161102,287.231720 363.068970,290.065826 364.354187,292.717041 
	C368.580200,301.434692 372.249908,310.143036 366.557129,319.613220 
	C370.963287,320.966644 373.436768,319.522827 374.954559,314.940125 
	C377.245697,308.022552 380.255371,301.342926 383.193878,293.823578 
M322.912415,172.111526 
	C314.906525,170.985550 306.900665,169.859573 298.894775,168.733597 
	C298.781219,169.197083 298.667694,169.660583 298.554138,170.124084 
	C303.918396,175.809280 309.213165,181.563278 314.709137,187.118134 
	C315.734406,188.154388 317.680725,189.091751 319.007843,188.876694 
	C324.855011,187.929169 330.631042,186.542984 337.705414,185.046524 
	C332.418518,180.293182 328.027466,176.345291 322.912415,172.111526 
M238.990509,290.606873 
	C238.609268,292.705750 237.886826,294.808105 237.907913,296.902924 
	C237.984802,304.544128 244.025040,310.011536 251.532089,309.488068 
	C258.976227,308.968994 264.345673,302.624084 263.605469,295.221313 
	C263.023468,289.401184 259.582397,285.230713 254.137863,283.746857 
	C248.120728,282.106964 243.492249,284.028412 238.990509,290.606873 
M234.544647,289.597351 
	C235.383850,288.114197 236.223038,286.631073 237.024872,285.213989 
	C232.667023,281.885773 229.419769,283.473907 227.757355,284.909271 
	C224.285446,284.364410 222.112900,284.023438 219.881073,283.673187 
	C219.881073,292.620270 219.881073,300.685303 219.881073,308.760437 
	C221.898514,308.760437 223.649170,308.760437 225.911499,308.760437 
	C225.911499,304.390320 225.677856,300.252960 225.970474,296.153137 
	C226.338333,290.998871 228.658234,289.300964 234.544647,289.597351 
M160.979660,343.675262 
	C162.023178,341.078094 163.066711,338.480957 164.443420,335.054565 
	C165.505569,338.109070 166.111694,340.185150 166.969910,342.151154 
	C167.298645,342.904205 168.193130,343.877411 168.848267,343.891510 
	C169.524353,343.906036 170.614700,343.002594 170.847305,342.282318 
	C172.245926,337.951355 173.449997,333.557587 175.057938,328.017792 
	C169.410065,330.149658 171.405792,335.571960 168.559387,337.991425 
	C167.282394,335.056641 166.012344,332.137787 164.742279,329.218933 
	C164.315613,329.346832 163.888962,329.474731 163.462296,329.602631 
	C162.325882,332.355988 161.189453,335.109314 159.792587,338.493652 
	C156.562805,329.266968 156.562805,329.266968 153.890930,329.461060 
	C155.077301,333.466675 156.121429,337.483887 157.514908,341.376038 
	C157.897964,342.445984 159.325302,343.142059 160.979660,343.675262 
M366.815216,339.645447 
	C366.875671,338.556549 366.936127,337.467651 367.016388,336.022614 
	C371.566498,343.546753 371.566498,343.546753 376.439026,336.320740 
	C376.641541,339.166107 376.809570,341.526733 376.988861,344.045837 
	C379.966705,342.551422 380.336121,339.585693 379.150146,328.779388 
	C372.482208,328.376373 375.079834,336.008301 371.378082,337.887939 
	C367.422028,328.813019 367.422028,328.813019 364.312805,329.319641 
	C364.312805,334.230286 364.312805,339.092682 364.312805,343.955078 
	C364.755524,344.052155 365.198242,344.149231 365.640961,344.246307 
	C366.032288,343.000092 366.423615,341.753845 366.815216,339.645447 
M131.276291,331.897278 
	C132.234390,335.077240 133.073166,338.301147 134.218506,341.412170 
	C134.594635,342.433807 135.765457,343.162842 136.572876,344.025696 
	C137.263153,343.232666 138.181519,342.542572 138.595551,341.624908 
	C139.421448,339.794403 139.970490,337.838989 141.040268,334.768799 
	C142.246552,338.141846 142.864273,340.173248 143.716431,342.101044 
	C144.052979,342.862396 144.890884,343.869141 145.538345,343.897400 
	C146.213181,343.926880 147.338455,343.042175 147.567978,342.331451 
	C148.971283,337.986176 150.175980,333.576721 151.446884,329.188629 
	C150.840149,328.915161 150.233414,328.641693 149.626663,328.368195 
	C148.248535,331.543640 146.870407,334.719055 145.366089,338.185242 
	C144.043793,335.053131 142.827957,332.173218 141.612122,329.293274 
	C141.181274,329.335358 140.750412,329.377441 140.319565,329.419525 
	C139.142639,332.299316 137.965729,335.179108 136.461609,338.859558 
	C135.434204,335.363586 134.797150,332.779755 133.867294,330.305969 
	C133.614975,329.634674 132.478531,329.295715 131.747879,328.804230 
	C131.529587,329.617767 131.311295,330.431305 131.276291,331.897278 
M195.337112,329.222046 
	C194.422729,332.135529 193.508347,335.049042 192.336365,338.783356 
	C190.820053,335.109100 189.626083,332.215912 188.432114,329.322723 
	C187.992172,329.332062 187.552231,329.341370 187.112289,329.350677 
	C185.940109,332.222870 184.767929,335.095032 183.581100,338.003082 
	C180.702942,335.438934 182.890686,329.910370 177.128769,328.401154 
	C178.628403,333.548523 179.809555,337.830139 181.166946,342.055084 
	C181.415344,342.828278 182.601273,344.017273 182.971069,343.891022 
	C183.846100,343.592377 184.761246,342.748352 185.173248,341.890869 
	C186.097778,339.966736 186.726028,337.900208 187.896805,334.760010 
	C188.956039,337.968658 189.475784,340.050507 190.353134,341.968842 
	C190.743439,342.822266 191.773758,343.576324 192.682190,343.895203 
	C193.003006,344.007812 194.105560,342.787415 194.370865,342.011322 
	C195.605469,338.400024 196.765945,334.754822 197.695053,331.056976 
	C197.831772,330.512817 196.585571,329.621155 195.337112,329.222046 
M300.093079,334.802338 
	C300.030121,329.043304 297.508301,327.675995 290.213135,329.445557 
	C289.602295,342.303101 289.676117,342.783417 292.723419,344.006287 
	C292.930908,341.915314 293.130157,339.907745 293.337982,337.813660 
	C297.264801,338.328125 296.216217,344.894867 301.027100,343.880615 
	C301.179840,340.674713 295.740021,338.836975 300.093079,334.802338 
M218.686981,336.833435 
	C216.128601,334.341553 216.274139,329.237885 211.154327,328.642151 
	C211.154327,334.048248 211.154327,338.962860 211.154327,343.877472 
	C211.694916,344.010193 212.235504,344.142883 212.776093,344.275574 
	C213.312302,341.474365 213.848511,338.673157 214.377762,335.908203 
	C217.874451,337.968414 217.152893,344.042236 222.653259,343.948212 
	C223.518005,330.608093 223.366974,329.711029 220.449631,329.247345 
	C220.006943,331.977295 219.564407,334.706421 218.686981,336.833435 
M266.093719,341.423065 
	C268.708405,335.389465 267.423279,330.381561 262.733948,328.934875 
	C259.226990,327.852936 255.954178,328.532898 254.086700,331.902313 
	C252.074493,335.532806 252.076172,339.430695 255.349594,342.358368 
	C258.666840,345.325256 262.305664,344.918121 266.093719,341.423065 
M280.661835,344.001495 
	C281.758911,343.293518 283.129120,342.804382 283.903656,341.837891 
	C286.602661,338.469940 286.766754,334.743286 284.201752,331.294891 
	C281.771606,328.027832 278.317291,327.739807 274.839508,329.438354 
	C271.542114,331.048828 270.174530,335.656494 271.629852,339.446503 
	C273.102539,343.281708 276.009430,344.622955 280.661835,344.001495 
M345.986969,331.564056 
	C343.464355,337.970459 345.152161,343.096344 350.207550,344.033478 
	C353.784332,344.696533 356.983002,343.832214 358.476898,340.213379 
	C359.951569,336.640991 359.961395,332.883270 356.682922,330.235260 
	C353.236420,327.451477 349.636658,327.904938 345.986969,331.564056 
M244.234146,329.039825 
	C241.945847,328.938812 239.657547,328.837799 237.192291,328.728973 
	C237.192291,334.010681 237.192291,338.897827 237.192291,343.938812 
	C241.960876,344.149811 246.884811,344.821289 248.809662,339.402863 
	C250.239975,335.376556 249.429428,331.448242 244.234146,329.039825 
M338.040375,332.792816 
	C339.008301,332.945496 339.976227,333.098175 341.834503,333.391296 
	C338.781708,328.429260 335.301575,327.423431 331.391388,329.262848 
	C327.819214,330.943268 326.830353,334.313049 327.559052,338.094208 
	C328.313446,342.009033 330.621338,344.266083 334.755951,344.188049 
	C337.878571,344.129150 340.384460,343.161896 341.012268,339.018890 
	C337.371216,339.628784 333.765167,344.145142 331.089630,339.048889 
	C330.270508,337.488556 330.383636,334.259125 331.457123,333.199646 
	C332.653534,332.018860 335.430847,332.439850 338.040375,332.792816 
M308.036896,336.558350 
	C309.352112,337.923523 310.667297,339.288696 311.982483,340.653839 
	C310.332153,340.298248 308.684265,339.930511 307.030121,339.593658 
	C306.446289,339.474701 305.701843,339.185303 305.297058,339.424500 
	C304.916901,339.649078 304.598694,340.853088 304.749786,340.966888 
	C306.244324,342.092529 307.885834,343.961639 309.399994,343.886780 
	C311.325012,343.791565 313.699402,342.476166 314.834930,340.922821 
	C315.433685,340.103790 314.214142,337.296143 313.084625,336.047760 
	C311.806793,334.635437 309.709625,333.964417 307.968719,332.971039 
	C308.097931,332.575500 308.227173,332.179932 308.356384,331.784363 
	C310.262634,331.784363 312.168884,331.784363 314.708344,331.784363 
	C312.305878,327.863495 309.444733,327.671936 306.849609,329.650421 
	C304.240875,331.639282 304.484741,334.196716 308.036896,336.558350 
M231.255371,333.052490 
	C231.148392,331.653809 231.041428,330.255127 230.919739,328.664093 
	C228.175812,330.150757 227.398621,334.284454 228.322479,341.577820 
	C228.443115,342.530151 229.441086,343.371338 230.032684,344.264008 
	C230.440231,344.086578 230.847778,343.909149 231.255325,343.731720 
	C231.255325,340.458496 231.255325,337.185303 231.255371,333.052490 
M295.100464,172.645370 
	C292.415619,175.176575 289.689453,177.667816 287.129150,180.319290 
	C286.936676,180.518631 287.744415,182.227173 288.421722,182.566589 
	C289.068604,182.890762 290.481842,182.655136 290.986633,182.123199 
	C293.020142,179.980301 294.911285,177.684525 296.643005,175.291794 
	C296.908752,174.924622 296.063080,173.753082 295.100464,172.645370 
M176.062851,204.476685 
	C177.325546,209.629608 180.941162,206.042175 183.665649,206.983658 
	C183.665649,204.605545 183.665649,202.741119 183.665649,200.341095 
	C180.787857,201.416885 176.530151,197.449097 176.062851,204.476685 
M192.821228,204.337799 
	C192.738373,202.735428 192.655502,201.133072 192.568176,199.444580 
	C190.210892,199.444580 188.319275,199.444580 186.252594,199.444580 
	C186.252594,202.030121 186.252594,204.273544 186.252594,207.881760 
	C188.856613,206.814438 190.818481,206.010315 192.821228,204.337799 
M187.715195,209.157516 
	C186.957977,211.518768 186.200775,213.880020 185.330261,216.594604 
	C188.536285,216.594604 190.544342,216.594604 192.841873,216.594604 
	C192.199371,213.255859 195.091827,208.536453 187.715195,209.157516 
M182.996857,213.497375 
	C182.884750,207.071625 178.764969,210.921539 176.295135,210.358139 
	C176.295135,212.758911 176.295135,214.676208 176.295135,217.180435 
	C178.732803,215.888855 182.337555,219.453339 182.996857,213.497375 
z"/>
<path fill="#3999DA" opacity="1.000000" stroke="none" 
	d="
M252.776611,177.895111 
	C250.063507,185.512039 255.632538,188.205429 260.271057,192.141281 
	C260.271057,182.274597 260.271057,172.975021 260.271057,163.414551 
	C263.191742,163.414551 265.966522,163.414551 269.642212,163.414551 
	C269.642212,167.003571 269.384583,170.609024 269.775757,174.142654 
	C269.921387,175.457794 271.692139,177.737579 272.539978,177.657288 
	C283.738556,176.596817 285.973328,186.817764 292.398590,192.363907 
	C291.308319,192.799377 290.870209,193.116821 290.421326,193.132797 
	C279.489044,193.521454 272.386841,200.215500 265.468933,207.678406 
	C257.774384,215.979141 249.554703,223.793091 241.048569,232.336243 
	C219.607285,207.271057 198.371567,182.446182 176.210159,156.539154 
	C191.595520,160.002762 205.529709,163.126648 219.457352,166.279510 
	C229.355118,168.520126 239.233582,170.847198 249.144089,173.029388 
	C251.681442,173.588104 253.684143,174.263367 252.776611,177.895111 
z"/>
<path fill="#3A9ADA" opacity="1.000000" stroke="none" 
	d="
M337.411499,199.424591 
	C328.896545,209.691879 320.663269,219.730591 312.265869,229.630096 
	C311.229156,230.852219 309.323853,232.035934 307.810822,232.048920 
	C290.332642,232.198822 272.852539,232.121216 255.372971,232.084198 
	C255.102646,232.083633 254.832855,231.832352 253.953079,231.394882 
	C257.400421,227.662430 260.722076,224.064133 264.045959,220.467911 
	C266.192688,218.145309 268.622375,216.025024 270.442780,213.470261 
	C278.329102,202.402603 288.771332,196.877457 302.486420,195.511932 
	C315.666687,194.199677 328.633850,190.757141 341.701233,188.285339 
	C342.985107,188.042480 344.314941,188.042526 347.046783,187.807266 
	C343.438904,192.160477 340.541046,195.657028 337.411499,199.424591 
z"/>
<path fill="#12229B" opacity="1.000000" stroke="none" 
	d="
M124.159081,232.083359 
	C121.969704,232.001724 120.230591,231.920013 117.227684,231.778931 
	C135.764221,208.487015 153.560623,186.125122 171.739487,163.282639 
	C174.878769,165.953995 177.469925,168.158920 180.519257,170.753723 
	C174.023987,179.042587 167.800964,186.979187 161.583237,194.919937 
	C153.599304,205.116287 145.496933,215.223297 137.695099,225.557205 
	C134.303223,230.049911 130.790497,233.539413 124.159081,232.083359 
z"/>
<path fill="#EDEFF6" opacity="1.000000" stroke="none" 
	d="
M125.142960,309.013397 
	C123.182930,309.013397 121.691956,309.013397 119.869316,309.013397 
	C119.869316,297.096802 119.869316,285.393311 119.869316,273.675079 
	C124.674576,273.675079 129.337067,273.215607 133.875824,273.769623 
	C143.675156,274.965881 148.715820,281.502014 148.458466,291.860352 
	C148.208252,301.931366 142.482819,308.121887 132.600967,308.893250 
	C130.282318,309.074219 127.942245,308.980682 125.142960,309.013397 
M129.349503,303.048737 
	C138.851395,302.528778 142.732452,298.271027 141.936310,289.240204 
	C141.240692,281.349579 136.310135,278.327454 126.007278,279.777435 
	C126.007278,286.807373 125.938873,293.900146 126.113426,300.986969 
	C126.130821,301.693359 127.627136,302.363281 129.349503,303.048737 
z"/>
<path fill="#EBEDF4" opacity="1.000000" stroke="none" 
	d="
M166.717010,309.207886 
	C157.216324,306.979797 152.538712,300.861572 152.544281,291.149750 
	C152.549591,281.886719 157.483932,274.950226 165.312042,273.201294 
	C173.991089,271.262268 181.167618,274.728760 185.138458,283.116699 
	C183.349091,283.851410 181.580124,284.577728 179.877502,285.276825 
	C175.602539,279.492523 171.464142,277.814209 166.169846,279.531006 
	C161.391953,281.080414 158.899307,285.191345 159.003143,291.350586 
	C159.102219,297.225830 161.731216,301.483459 166.078934,302.809723 
	C171.500809,304.463684 175.577347,302.773010 179.782837,296.920593 
	C181.484573,297.632660 183.262283,298.376526 185.035706,299.118622 
	C181.929672,306.969604 176.267242,310.105896 166.717010,309.207886 
z"/>
<path fill="#ECEEF5" opacity="1.000000" stroke="none" 
	d="
M279.625244,283.545410 
	C286.083038,283.144196 289.588013,285.060303 291.688293,289.804199 
	C294.134247,295.328735 293.107758,302.851776 289.213745,306.577606 
	C284.994720,310.614410 280.301636,310.140106 275.045959,307.235260 
	C275.045959,311.658386 275.045959,315.690033 275.045959,319.877686 
	C272.815918,319.877686 271.046387,319.877686 268.986877,319.877686 
	C268.986877,307.953857 268.986877,296.108398 268.986877,284.319489 
	C272.471344,284.100433 275.859131,283.887451 279.625244,283.545410 
M274.873657,298.987427 
	C275.744781,302.346313 278.137543,304.610321 281.294434,303.497864 
	C283.401764,302.755341 285.470886,300.021149 286.214081,297.740601 
	C287.278290,294.474915 286.250488,291.076904 282.778320,289.331604 
	C279.692230,287.780365 275.968811,289.679871 275.039978,293.260468 
	C274.637573,294.811829 274.830292,296.517578 274.873657,298.987427 
z"/>
<path fill="#E5E7EF" opacity="1.000000" stroke="none" 
	d="
M201.727234,273.206360 
	C207.336517,273.586182 212.178192,274.603119 214.395905,280.096466 
	C216.979156,286.495270 213.067764,292.877930 205.867432,293.955322 
	C203.428238,294.320312 200.927826,294.276184 197.909897,294.450531 
	C197.909897,299.258850 197.909897,303.970856 197.909897,308.803650 
	C195.439819,308.803650 193.526794,308.803650 191.391937,308.803650 
	C191.391937,297.021698 191.391937,285.464752 191.391937,273.203705 
	C194.763397,273.203705 198.018173,273.203705 201.727234,273.206360 
M206.329819,287.432892 
	C206.911148,285.605804 208.224442,282.307495 207.961777,282.176819 
	C204.993820,280.700134 201.784241,279.709106 198.056900,278.380127 
	C198.056900,282.560150 198.056900,285.142151 198.056900,288.160553 
	C200.728745,288.038177 203.164566,287.926575 206.329819,287.432892 
z"/>
<path fill="#E9ECF3" opacity="1.000000" stroke="none" 
	d="
M297.064667,290.412689 
	C301.143433,283.937317 306.311951,281.868988 312.390381,283.952393 
	C317.653931,285.756470 320.119507,290.373657 319.677673,298.350403 
	C314.216492,298.350403 308.690338,298.350403 302.976471,298.350403 
	C304.831970,304.561584 308.079285,305.304932 314.992767,301.532379 
	C316.138916,302.518555 317.365295,303.573730 318.588806,304.626465 
	C314.420868,309.650604 307.432404,310.979797 301.963531,307.942383 
	C296.554169,304.937988 294.669373,298.496490 297.064667,290.412689 
M313.080078,293.728851 
	C313.538269,289.938660 311.273743,288.717255 308.077942,288.732452 
	C304.892151,288.747589 302.974426,290.255798 303.070282,293.947418 
	C306.292480,293.947418 309.241272,293.947418 313.080078,293.728851 
z"/>
<path fill="#12229B" opacity="1.000000" stroke="none" 
	d="
M354.776367,196.269501 
	C364.698792,208.528748 374.388763,220.523376 384.893433,233.526443 
	C379.288605,233.850922 374.952545,234.101944 370.368073,234.367355 
	C370.580780,224.835556 362.514069,220.481339 358.201477,213.859848 
	C356.033813,210.531647 353.184082,207.653702 350.724030,204.508606 
	C346.373993,198.947250 346.399994,198.926926 352.348267,192.752243 
	C353.086639,193.846069 353.815277,194.925461 354.776367,196.269501 
z"/>
<path fill="#E9ECF3" opacity="1.000000" stroke="none" 
	d="
M383.076782,294.192871 
	C380.255371,301.342926 377.245697,308.022552 374.954559,314.940125 
	C373.436768,319.522827 370.963287,320.966644 366.557129,319.613220 
	C372.249908,310.143036 368.580200,301.434692 364.354187,292.717041 
	C363.068970,290.065826 362.161102,287.231720 360.936401,284.114746 
	C363.317322,284.114746 365.380157,284.114746 367.723358,284.114746 
	C369.601959,289.156128 371.543091,294.365265 373.966736,300.869232 
	C375.749237,296.090759 377.475220,292.551788 378.362701,288.813690 
	C379.514313,283.963318 382.292023,282.939545 387.042633,284.270477 
	C385.750214,287.478424 384.472046,290.651001 383.076782,294.192871 
z"/>
<path fill="#12229B" opacity="1.000000" stroke="none" 
	d="
M323.274414,172.254471 
	C328.027466,176.345291 332.418518,180.293182 337.705414,185.046524 
	C330.631042,186.542984 324.855011,187.929169 319.007843,188.876694 
	C317.680725,189.091751 315.734406,188.154388 314.709137,187.118134 
	C309.213165,181.563278 303.918396,175.809280 298.554138,170.124084 
	C298.667694,169.660583 298.781219,169.197083 298.894775,168.733597 
	C306.900665,169.859573 314.906525,170.985550 323.274414,172.254471 
z"/>
<path fill="#EBEDF4" opacity="1.000000" stroke="none" 
	d="
M239.129517,290.263245 
	C243.492249,284.028412 248.120728,282.106964 254.137863,283.746857 
	C259.582397,285.230713 263.023468,289.401184 263.605469,295.221313 
	C264.345673,302.624084 258.976227,308.968994 251.532089,309.488068 
	C244.025040,310.011536 237.984802,304.544128 237.907913,296.902924 
	C237.886826,294.808105 238.609268,292.705750 239.129517,290.263245 
M246.831665,290.057098 
	C243.832703,292.997559 243.439972,296.658539 245.162308,300.094452 
	C246.033676,301.832733 248.400421,303.553864 250.299347,303.825226 
	C251.979736,304.065338 255.223099,302.603119 255.538498,301.335602 
	C256.317047,298.206940 256.679962,294.435059 255.595337,291.523163 
	C254.322769,288.106720 250.702515,288.177551 246.831665,290.057098 
z"/>
<path fill="#EDEFF6" opacity="1.000000" stroke="none" 
	d="
M343.008972,284.332581 
	C344.118164,284.058075 345.227325,283.783569 346.706146,283.417572 
	C346.203857,279.095490 347.236481,275.379944 352.649414,273.962555 
	C352.649414,277.079559 352.649414,280.121490 352.649414,283.545685 
	C354.849823,283.701508 356.615173,283.826508 358.915405,283.989349 
	C358.980713,285.433197 359.050232,286.969788 359.134125,288.824585 
	C357.035461,288.930725 355.264648,289.020294 352.902130,289.139801 
	C352.902130,292.447662 353.050201,295.726440 352.865601,298.986359 
	C352.621216,303.301422 354.234924,304.967987 358.813049,303.332153 
	C358.813049,305.210327 358.813049,306.936432 358.813049,308.647278 
	C350.169495,310.766785 346.752472,308.220428 346.685455,299.670715 
	C346.663269,296.841370 346.810822,294.001526 346.593048,291.188782 
	C346.533020,290.413635 345.435883,289.718781 344.253540,288.732239 
	C343.463531,288.263336 343.195923,288.122925 342.889709,288.056152 
	C342.889709,288.056152 342.954651,288.094299 342.963867,287.738770 
	C342.985046,286.366333 342.997009,285.349487 343.008972,284.332581 
z"/>
<path fill="#E9ECF3" opacity="1.000000" stroke="none" 
	d="
M234.167145,289.714600 
	C228.658234,289.300964 226.338333,290.998871 225.970474,296.153137 
	C225.677856,300.252960 225.911499,304.390320 225.911499,308.760437 
	C223.649170,308.760437 221.898514,308.760437 219.881073,308.760437 
	C219.881073,300.685303 219.881073,292.620270 219.881073,283.673187 
	C222.112900,284.023438 224.285446,284.364410 227.757355,284.909271 
	C229.419769,283.473907 232.667023,281.885773 237.024872,285.213989 
	C236.223038,286.631073 235.383850,288.114197 234.167145,289.714600 
z"/>
<path fill="#EBEDF4" opacity="1.000000" stroke="none" 
	d="
M342.608337,284.358398 
	C342.997009,285.349487 342.985046,286.366333 342.935547,287.763550 
	C339.754547,289.116058 335.929077,289.316162 333.681030,291.301971 
	C331.846649,292.922394 331.584961,296.634583 331.199127,299.496582 
	C330.805756,302.414734 331.112091,305.427185 331.112091,308.800049 
	C329.178925,308.890411 327.436951,308.971832 325.368744,309.068512 
	C325.368744,300.652679 325.368744,292.455383 325.368744,283.153503 
	C327.590515,284.004395 329.447327,284.806976 331.369843,285.394897 
	C331.931976,285.566772 332.673859,285.036743 333.345551,284.984131 
	C336.297180,284.753021 339.253265,284.578979 342.608337,284.358398 
z"/>
<path fill="#DEE0E9" opacity="1.000000" stroke="none" 
	d="
M160.626556,343.842468 
	C159.325302,343.142059 157.897964,342.445984 157.514908,341.376038 
	C156.121429,337.483887 155.077301,333.466675 153.890930,329.461060 
	C156.562805,329.266968 156.562805,329.266968 159.792587,338.493652 
	C161.189453,335.109314 162.325882,332.355988 163.462296,329.602631 
	C163.888962,329.474731 164.315613,329.346832 164.742279,329.218933 
	C166.012344,332.137787 167.282394,335.056641 168.559387,337.991425 
	C171.405792,335.571960 169.410065,330.149658 175.057938,328.017792 
	C173.449997,333.557587 172.245926,337.951355 170.847305,342.282318 
	C170.614700,343.002594 169.524353,343.906036 168.848267,343.891510 
	C168.193130,343.877411 167.298645,342.904205 166.969910,342.151154 
	C166.111694,340.185150 165.505569,338.109070 164.443420,335.054565 
	C163.066711,338.480957 162.023178,341.078094 160.626556,343.842468 
z"/>
<path fill="#D7DAE4" opacity="1.000000" stroke="none" 
	d="
M366.815063,340.076538 
	C366.423615,341.753845 366.032288,343.000092 365.640961,344.246307 
	C365.198242,344.149231 364.755524,344.052155 364.312805,343.955078 
	C364.312805,339.092682 364.312805,334.230286 364.312805,329.319641 
	C367.422028,328.813019 367.422028,328.813019 371.378082,337.887939 
	C375.079834,336.008301 372.482208,328.376373 379.150146,328.779388 
	C380.336121,339.585693 379.966705,342.551422 376.988861,344.045837 
	C376.809570,341.526733 376.641541,339.166107 376.439026,336.320740 
	C371.566498,343.546753 371.566498,343.546753 367.016388,336.022614 
	C366.936127,337.467651 366.875671,338.556549 366.815063,340.076538 
z"/>
<path fill="#DEE0E9" opacity="1.000000" stroke="none" 
	d="
M131.184631,331.571045 
	C131.311295,330.431305 131.529587,329.617767 131.747879,328.804230 
	C132.478531,329.295715 133.614975,329.634674 133.867294,330.305969 
	C134.797150,332.779755 135.434204,335.363586 136.461609,338.859558 
	C137.965729,335.179108 139.142639,332.299316 140.319565,329.419525 
	C140.750412,329.377441 141.181274,329.335358 141.612122,329.293274 
	C142.827957,332.173218 144.043793,335.053131 145.366089,338.185242 
	C146.870407,334.719055 148.248535,331.543640 149.626663,328.368195 
	C150.233414,328.641693 150.840149,328.915161 151.446884,329.188629 
	C150.175980,333.576721 148.971283,337.986176 147.567978,342.331451 
	C147.338455,343.042175 146.213181,343.926880 145.538345,343.897400 
	C144.890884,343.869141 144.052979,342.862396 143.716431,342.101044 
	C142.864273,340.173248 142.246552,338.141846 141.040268,334.768799 
	C139.970490,337.838989 139.421448,339.794403 138.595551,341.624908 
	C138.181519,342.542572 137.263153,343.232666 136.572876,344.025696 
	C135.765457,343.162842 134.594635,342.433807 134.218506,341.412170 
	C133.073166,338.301147 132.234390,335.077240 131.184631,331.571045 
z"/>
<path fill="#DEE0E9" opacity="1.000000" stroke="none" 
	d="
M195.658173,329.056152 
	C196.585571,329.621155 197.831772,330.512817 197.695053,331.056976 
	C196.765945,334.754822 195.605469,338.400024 194.370865,342.011322 
	C194.105560,342.787415 193.003006,344.007812 192.682190,343.895203 
	C191.773758,343.576324 190.743439,342.822266 190.353134,341.968842 
	C189.475784,340.050507 188.956039,337.968658 187.896805,334.760010 
	C186.726028,337.900208 186.097778,339.966736 185.173248,341.890869 
	C184.761246,342.748352 183.846100,343.592377 182.971069,343.891022 
	C182.601273,344.017273 181.415344,342.828278 181.166946,342.055084 
	C179.809555,337.830139 178.628403,333.548523 177.128769,328.401154 
	C182.890686,329.910370 180.702942,335.438934 183.581100,338.003082 
	C184.767929,335.095032 185.940109,332.222870 187.112289,329.350677 
	C187.552231,329.341370 187.992172,329.332062 188.432114,329.322723 
	C189.626083,332.215912 190.820053,335.109100 192.336365,338.783356 
	C193.508347,335.049042 194.422729,332.135529 195.658173,329.056152 
z"/>
<path fill="#DEE0E9" opacity="1.000000" stroke="none" 
	d="
M299.963593,335.132324 
	C295.740021,338.836975 301.179840,340.674713 301.027100,343.880615 
	C296.216217,344.894867 297.264801,338.328125 293.337982,337.813660 
	C293.130157,339.907745 292.930908,341.915314 292.723419,344.006287 
	C289.676117,342.783417 289.602295,342.303101 290.213135,329.445557 
	C297.508301,327.675995 300.030121,329.043304 299.963593,335.132324 
z"/>
<path fill="#DEE0E9" opacity="1.000000" stroke="none" 
	d="
M218.904419,337.134460 
	C219.564407,334.706421 220.006943,331.977295 220.449631,329.247345 
	C223.366974,329.711029 223.518005,330.608093 222.653259,343.948212 
	C217.152893,344.042236 217.874451,337.968414 214.377762,335.908203 
	C213.848511,338.673157 213.312302,341.474365 212.776093,344.275574 
	C212.235504,344.142883 211.694916,344.010193 211.154327,343.877472 
	C211.154327,338.962860 211.154327,334.048248 211.154327,328.642151 
	C216.274139,329.237885 216.128601,334.341553 218.904419,337.134460 
z"/>
<path fill="#DEE0E9" opacity="1.000000" stroke="none" 
	d="
M265.871307,341.719208 
	C262.305664,344.918121 258.666840,345.325256 255.349594,342.358368 
	C252.076172,339.430695 252.074493,335.532806 254.086700,331.902313 
	C255.954178,328.532898 259.226990,327.852936 262.733948,328.934875 
	C267.423279,330.381561 268.708405,335.389465 265.871307,341.719208 
M260.466583,341.678741 
	C264.897186,340.591187 265.366455,337.298126 263.912201,333.985382 
	C263.313507,332.621582 260.370483,331.152679 258.942535,331.512512 
	C255.488129,332.382904 255.409668,335.693787 256.277618,338.476868 
	C256.675507,339.752716 258.510925,340.580261 260.466583,341.678741 
z"/>
<path fill="#E1E3EC" opacity="1.000000" stroke="none" 
	d="
M280.302124,344.047455 
	C276.009430,344.622955 273.102539,343.281708 271.629852,339.446503 
	C270.174530,335.656494 271.542114,331.048828 274.839508,329.438354 
	C278.317291,327.739807 281.771606,328.027832 284.201752,331.294891 
	C286.766754,334.743286 286.602661,338.469940 283.903656,341.837891 
	C283.129120,342.804382 281.758911,343.293518 280.302124,344.047455 
M275.132904,332.754578 
	C274.786591,334.161713 273.760559,335.892609 274.242828,336.905090 
	C275.108337,338.722290 276.880157,340.107788 278.273254,341.673706 
	C279.808655,340.084625 282.302399,338.698334 282.690002,336.866394 
	C283.644226,332.356415 280.380188,330.390900 275.132904,332.754578 
z"/>
<path fill="#E1E3EC" opacity="1.000000" stroke="none" 
	d="
M346.195190,331.257416 
	C349.636658,327.904938 353.236420,327.451477 356.682922,330.235260 
	C359.961395,332.883270 359.951569,336.640991 358.476898,340.213379 
	C356.983002,343.832214 353.784332,344.696533 350.207550,344.033478 
	C345.152161,343.096344 343.464355,337.970459 346.195190,331.257416 
M348.807587,332.620239 
	C348.552734,334.679718 347.813843,336.842773 348.224121,338.759888 
	C348.471375,339.915222 350.415436,341.239929 351.765900,341.462128 
	C352.893890,341.647766 355.202087,340.507202 355.351898,339.663483 
	C355.753998,337.399017 355.855621,334.696564 354.899475,332.744629 
	C354.449432,331.825806 351.297119,332.230621 348.807587,332.620239 
z"/>
<path fill="#E1E3EC" opacity="1.000000" stroke="none" 
	d="
M244.597916,329.166565 
	C249.429428,331.448242 250.239975,335.376556 248.809662,339.402863 
	C246.884811,344.821289 241.960876,344.149811 237.192291,343.938812 
	C237.192291,338.897827 237.192291,334.010681 237.192291,328.728973 
	C239.657547,328.837799 241.945847,328.938812 244.597916,329.166565 
M246.347382,336.517151 
	C246.420532,332.343079 244.028137,331.177002 240.181152,331.523834 
	C240.181152,334.764191 240.181152,337.932556 240.181152,341.100922 
	C240.619232,341.438568 241.057312,341.776215 241.495392,342.113861 
	C243.073822,340.531372 244.652267,338.948883 246.347382,336.517151 
z"/>
<path fill="#D7DAE4" opacity="1.000000" stroke="none" 
	d="
M337.780212,332.478210 
	C335.430847,332.439850 332.653534,332.018860 331.457123,333.199646 
	C330.383636,334.259125 330.270508,337.488556 331.089630,339.048889 
	C333.765167,344.145142 337.371216,339.628784 341.012268,339.018890 
	C340.384460,343.161896 337.878571,344.129150 334.755951,344.188049 
	C330.621338,344.266083 328.313446,342.009033 327.559052,338.094208 
	C326.830353,334.313049 327.819214,330.943268 331.391388,329.262848 
	C335.301575,327.423431 338.781708,328.429260 341.834503,333.391296 
	C339.976227,333.098175 339.008301,332.945496 337.780212,332.478210 
z"/>
<path fill="#DEE0E9" opacity="1.000000" stroke="none" 
	d="
M307.708710,336.352936 
	C304.484741,334.196716 304.240875,331.639282 306.849609,329.650421 
	C309.444733,327.671936 312.305878,327.863495 314.708344,331.784363 
	C312.168884,331.784363 310.262634,331.784363 308.356384,331.784363 
	C308.227173,332.179932 308.097931,332.575500 307.968719,332.971039 
	C309.709625,333.964417 311.806793,334.635437 313.084625,336.047760 
	C314.214142,337.296143 315.433685,340.103790 314.834930,340.922821 
	C313.699402,342.476166 311.325012,343.791565 309.399994,343.886780 
	C307.885834,343.961639 306.244324,342.092529 304.749786,340.966888 
	C304.598694,340.853088 304.916901,339.649078 305.297058,339.424500 
	C305.701843,339.185303 306.446289,339.474701 307.030121,339.593658 
	C308.684265,339.930511 310.332153,340.298248 311.982483,340.653870 
	C310.667297,339.288696 309.352112,337.923523 307.708710,336.352936 
z"/>
<path fill="#D7DAE4" opacity="1.000000" stroke="none" 
	d="
M231.255341,333.482300 
	C231.255325,337.185303 231.255325,340.458496 231.255325,343.731720 
	C230.847778,343.909149 230.440231,344.086578 230.032684,344.264008 
	C229.441086,343.371338 228.443115,342.530151 228.322479,341.577820 
	C227.398621,334.284454 228.175812,330.150757 230.919739,328.664093 
	C231.041428,330.255127 231.148392,331.653809 231.255341,333.482300 
z"/>
<path fill="#12229B" opacity="1.000000" stroke="none" 
	d="
M295.415955,172.799469 
	C296.063080,173.753082 296.908752,174.924622 296.643005,175.291794 
	C294.911285,177.684525 293.020142,179.980301 290.986633,182.123199 
	C290.481842,182.655136 289.068604,182.890762 288.421722,182.566589 
	C287.744415,182.227173 286.936676,180.518631 287.129150,180.319290 
	C289.689453,177.667816 292.415619,175.176575 295.415955,172.799469 
z"/>
<path fill="#2038ED" opacity="1.000000" stroke="none" 
	d="
M176.059326,204.042511 
	C176.530151,197.449097 180.787857,201.416885 183.665649,200.341095 
	C183.665649,202.741119 183.665649,204.605545 183.665649,206.983658 
	C180.941162,206.042175 177.325546,209.629608 176.059326,204.042511 
z"/>
<path fill="#2038ED" opacity="1.000000" stroke="none" 
	d="
M192.800781,204.772003 
	C190.818481,206.010315 188.856613,206.814438 186.252594,207.881760 
	C186.252594,204.273544 186.252594,202.030121 186.252594,199.444580 
	C188.319275,199.444580 190.210892,199.444580 192.568176,199.444580 
	C192.655502,201.133072 192.738373,202.735428 192.800781,204.772003 
z"/>
<path fill="#2038ED" opacity="1.000000" stroke="none" 
	d="
M188.147766,209.134705 
	C195.091827,208.536453 192.199371,213.255859 192.841873,216.594604 
	C190.544342,216.594604 188.536285,216.594604 185.330261,216.594604 
	C186.200775,213.880020 186.957977,211.518768 188.147766,209.134705 
z"/>
<path fill="#233DFF" opacity="1.000000" stroke="none" 
	d="
M182.994598,213.946106 
	C182.337555,219.453339 178.732803,215.888855 176.295135,217.180435 
	C176.295135,214.676208 176.295135,212.758911 176.295135,210.358139 
	C178.764969,210.921539 182.884750,207.071625 182.994598,213.946106 
z"/>
<path fill="#233DFF" opacity="1.000000" stroke="none" 
	d="
M344.042358,221.097244 
	C343.042450,221.895996 342.042572,222.694748 341.042694,223.493500 
	C340.705231,223.172211 340.367767,222.850906 340.030304,222.529617 
	C342.262817,220.396240 336.103729,215.379852 343.580017,215.423828 
	C344.006104,217.658936 344.024231,219.378098 344.042358,221.097244 
z"/>
<path fill="#233DFF" opacity="1.000000" stroke="none" 
	d="
M345.010071,215.083694 
	C346.218170,215.490021 348.481049,215.952240 348.462952,216.293594 
	C348.346619,218.489120 347.730865,220.658203 347.279114,222.835968 
	C346.529877,222.493530 345.780670,222.151093 345.010132,221.022461 
	C344.995911,218.518738 345.002991,216.801224 345.010071,215.083694 
z"/>
<path fill="#2038ED" opacity="1.000000" stroke="none" 
	d="
M344.755005,215.035095 
	C345.002991,216.801224 344.995911,218.518738 344.973267,220.666809 
	C344.957733,221.097336 344.500031,221.018341 344.271179,221.057800 
	C344.024231,219.378098 344.006104,217.658936 343.988953,215.511749 
	C344.159882,215.051300 344.329926,215.018890 344.755005,215.035095 
z"/>
<path fill="#EBEDF4" opacity="1.000000" stroke="none" 
	d="
M342.889862,288.349609 
	C343.195923,288.122925 343.463531,288.263336 343.837799,288.654144 
	C343.618744,288.768311 343.254395,288.705688 342.889862,288.349609 
z"/>
<path fill="#090E34" opacity="1.000000" stroke="none" 
	d="
M128.893280,303.049438 
	C127.627136,302.363281 126.130821,301.693359 126.113426,300.986969 
	C125.938873,293.900146 126.007278,286.807373 126.007278,279.777435 
	C136.310135,278.327454 141.240692,281.349579 141.936310,289.240204 
	C142.732452,298.271027 138.851395,302.528778 128.893280,303.049438 
z"/>
<path fill="#0D1237" opacity="1.000000" stroke="none" 
	d="
M274.813171,298.570312 
	C274.830292,296.517578 274.637573,294.811829 275.039978,293.260468 
	C275.968811,289.679871 279.692230,287.780365 282.778320,289.331604 
	C286.250488,291.076904 287.278290,294.474915 286.214081,297.740601 
	C285.470886,300.021149 283.401764,302.755341 281.294434,303.497864 
	C278.137543,304.610321 275.744781,302.346313 274.813171,298.570312 
z"/>
<path fill="#0D1237" opacity="1.000000" stroke="none" 
	d="
M205.965088,287.623962 
	C203.164566,287.926575 200.728745,288.038177 198.056900,288.160553 
	C198.056900,285.142151 198.056900,282.560150 198.056900,278.380127 
	C201.784241,279.709106 204.993820,280.700134 207.961777,282.176819 
	C208.224442,282.307495 206.911148,285.605804 205.965088,287.623962 
z"/>
<path fill="#0D1237" opacity="1.000000" stroke="none" 
	d="
M312.635071,293.838135 
	C309.241272,293.947418 306.292480,293.947418 303.070282,293.947418 
	C302.974426,290.255798 304.892151,288.747589 308.077942,288.732452 
	C311.273743,288.717255 313.538269,289.938660 312.635071,293.838135 
z"/>
<path fill="#0D1237" opacity="1.000000" stroke="none" 
	d="
M247.148697,289.809570 
	C250.702515,288.177551 254.322769,288.106720 255.595337,291.523163 
	C256.679962,294.435059 256.317047,298.206940 255.538498,301.335602 
	C255.223099,302.603119 251.979736,304.065338 250.299347,303.825226 
	C248.400421,303.553864 246.033676,301.832733 245.162308,300.094452 
	C243.439972,296.658539 243.832703,292.997559 247.148697,289.809570 
z"/>
<path fill="#151A3E" opacity="1.000000" stroke="none" 
	d="
M260.080505,341.644958 
	C258.510925,340.580261 256.675507,339.752716 256.277618,338.476868 
	C255.409668,335.693787 255.488129,332.382904 258.942535,331.512512 
	C260.370483,331.152679 263.313507,332.621582 263.912201,333.985382 
	C265.366455,337.298126 264.897186,340.591187 260.080505,341.644958 
z"/>
<path fill="#151A3E" opacity="1.000000" stroke="none" 
	d="
M275.390259,332.461853 
	C280.380188,330.390900 283.644226,332.356415 282.690002,336.866394 
	C282.302399,338.698334 279.808655,340.084625 278.273254,341.673706 
	C276.880157,340.107788 275.108337,338.722290 274.242828,336.905090 
	C273.760559,335.892609 274.786591,334.161713 275.390259,332.461853 
z"/>
<path fill="#0D1237" opacity="1.000000" stroke="none" 
	d="
M349.088440,332.327942 
	C351.297119,332.230621 354.449432,331.825806 354.899475,332.744629 
	C355.855621,334.696564 355.753998,337.399017 355.351898,339.663483 
	C355.202087,340.507202 352.893890,341.647766 351.765900,341.462128 
	C350.415436,341.239929 348.471375,339.915222 348.224121,338.759888 
	C347.813843,336.842773 348.552734,334.679718 349.088440,332.327942 
z"/>
<path fill="#0D1237" opacity="1.000000" stroke="none" 
	d="
M246.289032,336.941772 
	C244.652267,338.948883 243.073822,340.531372 241.495392,342.113861 
	C241.057312,341.776215 240.619232,341.438568 240.181152,341.100922 
	C240.181152,337.932556 240.181152,334.764191 240.181152,331.523834 
	C244.028137,331.177002 246.420532,332.343079 246.289032,336.941772 
z"/>
</svg>