<?xml version="1.0" standalone="no"?>
<!DOCTYPE svg PUBLIC "-//W3C//DTD SVG 20010904//EN"
 "http://www.w3.org/TR/2001/REC-SVG-20010904/DTD/svg10.dtd">
<svg version="1.0" xmlns="http://www.w3.org/2000/svg"
 width="232.000000pt" height="239.000000pt" viewBox="0 0 232.000000 239.000000"
 preserveAspectRatio="xMidYMid meet">

<g transform="translate(0.000000,239.000000) scale(0.100000,-0.100000)"
fill="#000000" stroke="none">
<path d="M745 1739 c-204 -22 -346 -63 -370 -109 -21 -41 -19 -102 5 -133 37
-46 73 -51 191 -23 392 94 906 41 1230 -125 96 -49 130 -50 175 -5 29 29 34
41 34 79 0 64 -27 92 -144 148 -253 121 -556 181 -895 178 -80 -1 -182 -5
-226 -10z"/>
<path d="M735 1340 c-93 -14 -238 -52 -262 -68 -32 -20 -46 -76 -28 -118 26
-62 52 -65 240 -23 83 19 131 23 280 23 268 1 443 -38 671 -150 62 -30 117
-54 122 -54 26 0 65 26 78 51 18 36 18 63 -1 98 -19 37 -174 118 -317 165
-186 63 -279 77 -513 81 -116 2 -237 0 -270 -5z"/>
<path d="M755 960 c-175 -27 -235 -42 -255 -68 -26 -32 -25 -63 1 -96 25 -32
34 -32 186 -5 143 26 398 31 513 10 109 -19 223 -57 322 -107 95 -48 121 -52
156 -28 28 19 30 82 5 112 -38 45 -248 133 -400 168 -80 18 -435 28 -528 14z"/>
</g>
</svg>
